HIERARCHY
ROOT Joint1
{
	OFFSET 0.000000 0.000000 0.000000
	CHANNELS 6 Xposition Yposition Zposition Xrotation Yrotation Zrotation
	JOINT Joint2
	{
		OFFSET -0.000000 0.000000 1.456275
		CHANNELS 6 Xposition Yposition Zposition Xrotation Yrotation Zrotation
		JOINT Joint3
		{
			OFFSET -0.000000 0.000002 1.471446
			CHANNELS 6 Xposition Yposition Zposition Xrotation Yrotation Zrotation
			JOINT Joint4
			{
				OFFSET 0.625745 0.000000 0.917755
				CHANNELS 6 Xposition Yposition Zposition Xrotation Yrotation Zrotation
				JOINT Joint5
				{
					OFFSET -0.629534 0.000001 0.940221
					CHANNELS 6 Xposition Yposition Zposition Xrotation Yrotation Zrotation
					JOINT Joint6
					{
						OFFSET -0.000001 0.113772 1.960660
						CHANNELS 6 Xposition Yposition Zposition Xrotation Yrotation Zrotation
						JOINT Joint7
						{
							OFFSET -0.669733 -0.113771 0.388340
							CHANNELS 6 Xposition Yposition Zposition Xrotation Yrotation Zrotation
							End Site
							{
								OFFSET 0.005509 0.005509 0.438980
							}
						}
					}
				}
			}
		}
	}
}
MOTION
Frames: 24
Frame Time: 0.041667
0.000000 0.000000 0.000000 -0.000000 1.019410 51.683761 -0.000000 0.000000 1.456275 0.000000 -30.532325 -0.000001 -0.000001 0.000002 1.471446 -0.000000 -1.133464 -38.028519 0.625744 0.000000 0.917755 0.000011 107.833005 -0.000006 -0.629534 0.000001 0.940221 0.000001 1.709735 -65.367786 -0.000001 0.113772 1.960660 -88.303896 71.051658 -0.000001 -0.669733 -0.113771 0.388340 0.047286 3.233610 87.270816 
0.000000 0.000000 0.000000 -0.000000 1.019410 53.487799 -0.000000 0.000000 1.456275 0.000001 -30.027776 0.000000 -0.000000 0.000002 1.471445 -0.000000 -1.133464 -39.354645 0.625745 0.000000 0.917756 0.000017 106.883861 -0.000003 -0.629534 0.000001 0.940221 0.000000 1.709736 -67.648775 -0.000001 0.113772 1.960661 -88.303896 70.391308 -0.000002 -0.669733 -0.113771 0.388340 0.066853 3.211486 85.606470 
0.000000 0.000000 0.000000 -0.000000 1.019410 55.375748 -0.000000 -0.000000 1.456275 0.000000 -29.499771 -0.000002 -0.000000 0.000002 1.471445 -0.000004 -1.133462 -40.742451 0.625745 0.000001 0.917755 0.000001 105.890574 -0.000000 -0.629534 0.000001 0.940221 0.000002 1.709735 -70.035845 -0.000001 0.113772 1.960661 -88.303903 69.700243 0.000001 -0.669733 -0.113771 0.388341 0.086627 3.187730 83.864751 
0.000000 0.000000 0.000000 -0.000000 1.019410 56.886112 -0.000000 -0.000000 1.456275 0.000000 -29.077362 -0.000000 -0.000000 0.000002 1.471445 -0.000002 -1.133460 -41.852691 0.625745 0.000001 0.917755 0.000005 105.095950 -0.000005 -0.629534 0.000001 0.940221 -0.000001 1.709736 -71.945511 -0.000001 0.113772 1.960660 -88.303896 69.147380 -0.000008 -0.669733 -0.113771 0.388339 0.101922 3.168300 82.471413 
0.000000 0.000000 0.000000 -0.000000 1.019410 58.060829 -0.000000 0.000000 1.456275 0.000001 -28.748823 -0.000000 -0.000000 0.000002 1.471446 0.000001 -1.133466 -42.716215 0.625745 0.000001 0.917754 -0.000002 104.477893 0.000003 -0.629534 0.000001 0.940221 0.000001 1.709737 -73.430804 -0.000001 0.113772 1.960661 -88.303896 68.717393 -0.000000 -0.669734 -0.113771 0.388340 0.113488 3.152938 81.387728 
0.000000 0.000000 0.000000 -0.000000 1.019410 59.067735 -0.000000 0.000000 1.456275 -0.000001 -28.467218 -0.000000 -0.000000 0.000002 1.471445 -0.000003 -1.133462 -43.456378 0.625745 0.000001 0.917755 -0.000000 103.948144 -0.000002 -0.629533 0.000001 0.940221 0.000002 1.709736 -74.703896 -0.000001 0.113772 1.960661 -88.303896 68.348836 -0.000002 -0.669733 -0.113771 0.388340 0.123171 3.139595 80.458877 
0.000000 0.000000 0.000000 -0.000000 1.019410 60.074635 -0.000000 0.000000 1.456275 -0.000001 -28.185612 0.000000 -0.000000 0.000002 1.471446 -0.000002 -1.133463 -44.196542 0.625745 0.000001 0.917755 0.000007 103.418394 -0.000010 -0.629534 0.000001 0.940221 -0.000001 1.709736 -75.976996 -0.000001 0.113772 1.960660 -88.303889 67.980265 -0.000003 -0.669734 -0.113771 0.388340 0.132634 3.126099 79.530040 
0.000000 0.000000 0.000000 -0.000000 1.019410 61.249359 -0.000000 0.000000 1.456275 0.000001 -27.857075 -0.000000 -0.000000 0.000002 1.471446 -0.000004 -1.133462 -45.060063 0.625745 0.000000 0.917754 0.000006 102.800358 -0.000004 -0.629533 0.000001 0.940221 0.000000 1.709736 -77.462282 -0.000001 0.113772 1.960660 -88.303889 67.550270 -0.000008 -0.669733 -0.113771 0.388340 0.143394 3.110157 78.446410 
0.000000 0.000000 0.000000 -0.000000 1.019410 62.759726 -0.000000 0.000000 1.456275 -0.000001 -27.434664 -0.000001 -0.000001 0.000002 1.471445 -0.000002 -1.133465 -46.170310 0.625745 0.000001 0.917756 0.000015 102.005720 -0.000000 -0.629534 0.000001 0.940221 0.000002 1.709736 -79.371955 -0.000001 0.113772 1.960660 -88.303896 66.997421 -0.000003 -0.669733 -0.113771 0.388340 0.156780 3.089379 77.053188 
0.000000 0.000000 0.000000 -0.000000 1.019410 64.647693 -0.000000 0.000000 1.456275 0.000000 -26.906649 -0.000001 -0.000000 0.000002 1.471446 -0.000002 -1.133464 -47.558129 0.625744 0.000000 0.917755 -0.000008 101.012426 0.000002 -0.629534 0.000001 0.940221 0.000002 1.709735 -81.759051 -0.000001 0.113772 1.960661 -88.303889 66.306336 -0.000011 -0.669733 -0.113771 0.388340 0.172798 3.062945 75.311701 
0.000000 0.000000 0.000000 -0.000000 1.019410 66.451716 -0.000000 0.000000 1.456275 -0.000000 -26.402108 0.000002 -0.000000 0.000002 1.471445 -0.000002 -1.133462 -48.884241 0.625745 0.000001 0.917755 -0.000001 100.063289 -0.000010 -0.629533 0.000001 0.940221 0.000001 1.709736 -84.040014 -0.000001 0.113773 1.960660 -88.303896 65.645993 -0.000006 -0.669733 -0.113771 0.388340 0.187345 3.037253 73.647696 
0.000000 0.000000 0.000000 -0.000000 1.019410 67.756884 -0.000000 0.000000 1.456275 -0.000001 -26.037089 0.000000 -0.000000 0.000002 1.471445 -0.000002 -1.133464 -49.843647 0.625745 0.000000 0.917755 0.000022 99.376609 -0.000003 -0.629534 0.000001 0.940221 -0.000002 1.709735 -85.690235 -0.000001 0.113773 1.960660 -88.303889 65.168242 -0.000009 -0.669733 -0.113771 0.388341 0.197400 3.018410 72.443855 
0.000000 0.000000 0.000000 -0.000000 1.019410 68.838335 -0.000000 0.000000 1.456275 -0.000001 -25.734635 0.000001 -0.000000 0.000002 1.471445 -0.000001 -1.133465 -50.638606 0.625744 0.000001 0.917755 0.000003 98.807627 -0.000015 -0.629534 0.000001 0.940221 0.000004 1.709736 -87.057591 -0.000001 0.113772 1.960661 -88.303896 64.772391 -0.000007 -0.669733 -0.113771 0.388340 0.205432 3.002632 71.446374 
0.000000 0.000000 0.000000 -0.000000 1.019410 70.143707 -0.000000 0.000000 1.456275 -0.000000 -25.369556 0.000000 -0.000000 0.000002 1.471445 -0.000002 -1.133464 -51.598169 0.625745 0.000001 0.917755 0.000006 98.120858 -0.000007 -0.629534 0.000001 0.940221 0.000002 1.709736 -88.708072 -0.000001 0.113772 1.960661 -88.303889 64.294586 -0.000000 -0.669733 -0.113771 0.388341 0.214750 2.983412 70.242403 
0.000000 0.000000 0.000000 -0.000000 1.019410 71.948004 -0.000000 -0.000000 1.456275 0.000000 -24.864942 0.000000 -0.000000 0.000002 1.471446 -0.000002 -1.133463 -52.924479 0.625745 0.000000 0.917755 0.000017 97.171578 -0.000008 -0.629534 0.000001 0.940221 0.000001 1.709735 -90.989383 -0.000001 0.113772 1.960661 -88.303889 63.634127 -0.000008 -0.669733 -0.113771 0.388340 0.226971 2.956528 68.578289 
0.000000 0.000000 0.000000 -0.000000 1.019410 73.835690 -0.000000 -0.000000 1.456275 0.000000 -24.336999 0.000002 -0.000000 0.000002 1.471445 -0.000003 -1.133464 -54.312097 0.625745 0.000001 0.917755 0.000014 96.178435 -0.000005 -0.629533 0.000001 0.940221 -0.000000 1.709735 -93.376131 -0.000001 0.113772 1.960661 -88.303889 62.943164 -0.000004 -0.669733 -0.113771 0.388340 0.238909 2.928036 66.837294 
0.000000 0.000000 0.000000 -0.000000 1.019410 75.344910 -0.000000 0.000000 1.456275 -0.000000 -23.914912 0.000000 -0.000000 0.000002 1.471446 -0.000002 -1.133467 -55.421504 0.625745 0.000000 0.917755 -0.000003 95.384405 -0.000010 -0.629533 0.000001 0.940221 -0.000002 1.709736 -95.284356 -0.000001 0.113772 1.960661 -88.303896 62.390732 -0.000004 -0.669733 -0.113771 0.388340 0.247827 2.905005 65.445404 
0.000000 0.000000 0.000000 -0.000000 1.019410 76.519019 -0.000000 0.000000 1.456275 0.000000 -23.586545 -0.000001 -0.000000 0.000002 1.471446 -0.000003 -1.133463 -56.284573 0.625745 0.000000 0.917755 0.000023 94.766682 0.000014 -0.629534 0.000001 0.940221 -0.000002 1.709736 -96.768857 -0.000001 0.113772 1.960660 -88.303889 61.960956 -0.000004 -0.669733 -0.113771 0.388340 0.254375 2.886944 64.362587 
0.000000 0.000000 0.000000 -0.000000 1.019410 77.527681 -0.000000 0.000000 1.456275 -0.000000 -23.304448 -0.000001 -0.000000 0.000002 1.471446 -0.000002 -1.133466 -57.026025 0.625745 0.000001 0.917755 0.000011 94.236004 -0.000007 -0.629534 0.000001 0.940221 0.000002 1.709734 -98.044189 -0.000001 0.113772 1.960661 -88.303889 61.591743 -0.000003 -0.669733 -0.113771 0.388341 0.259727 2.871321 63.432377 
0.000000 0.000000 0.000000 -0.000000 1.019410 78.539150 -0.000000 0.000000 1.456275 0.000000 -23.021569 -0.000000 -0.000000 0.000002 1.471445 -0.000003 -1.133466 -57.769542 0.625745 0.000001 0.917755 0.000016 93.703857 -0.000002 -0.629533 0.000001 0.940221 0.000001 1.709735 -99.323060 -0.000001 0.113772 1.960660 -88.303896 61.221506 -0.000000 -0.669733 -0.113771 0.388340 0.264839 2.855585 62.499598 
0.000000 0.000000 0.000000 -0.000000 1.019410 79.716060 -0.000000 0.000000 1.456275 -0.000000 -22.692416 0.000000 -0.000000 0.000002 1.471446 -0.000003 -1.133464 -58.634681 0.625745 0.000001 0.917755 0.000019 93.084653 -0.000002 -0.629534 0.000001 0.940221 -0.000002 1.709735 -100.811120 -0.000001 0.113772 1.960661 -88.303889 60.790705 -0.000002 -0.669733 -0.113771 0.388340 0.270465 2.837164 61.414240 
0.000000 0.000000 0.000000 -0.000000 1.019410 81.219671 -0.000000 0.000000 1.456275 -0.000000 -22.271896 0.000000 -0.000000 0.000002 1.471446 -0.000002 -1.133467 -59.739956 0.625745 0.000001 0.917755 0.000058 92.293580 -0.000035 -0.629534 0.000001 0.940221 -0.000001 1.709736 -102.712248 -0.000001 0.113772 1.960661 -88.303889 60.240322 -0.000004 -0.669733 -0.113771 0.388341 0.277138 2.813479 60.027650 
0.000000 0.000000 0.000000 -0.000000 1.019410 83.093691 -0.000000 0.000000 1.456275 0.000000 -21.747783 -0.000000 -0.000000 0.000002 1.471445 -0.000003 -1.133462 -61.117516 0.625745 0.000000 0.917755 0.000214 91.307622 0.000013 -0.629533 0.000001 0.940221 0.000001 1.709735 -105.081702 -0.000001 0.113772 1.960660 -88.303889 59.554359 -0.000003 -0.669734 -0.113771 0.388341 0.284647 2.783759 58.299530 
0.000000 0.000000 0.000000 -0.000000 1.019410 84.911662 -0.000000 0.000000 1.456275 -0.000000 -21.239339 0.000000 -0.000000 0.000002 1.471446 -0.000003 -1.133467 -62.453884 0.625745 0.000001 0.917755 -0.000039 90.351149 -0.000507 -0.629534 0.000001 0.940221 0.000002 1.709735 -107.380307 -0.000001 0.113772 1.960660 -88.303889 58.888907 0.000001 -0.669733 -0.113771 0.388340 0.291073 2.754707 56.623115 
